<svg xmlns="http://www.w3.org/2000/svg" xmlns:xlink="http://www.w3.org/1999/xlink" viewBox="0 0 98.312904 87.071915"><defs><linearGradient id="a"><stop offset=".0001" stop-color="#ec872c"/><stop offset="1" stop-color="#cc5b02"/></linearGradient><linearGradient xlink:href="#a" id="b" x1="101.19462" x2="124.51677" y1="144.45197" y2="169.64325" gradientUnits="userSpaceOnUse"/></defs><path fill="url(#b)" fill-rule="evenodd" d="m85.188362 95.294236.0052.001a33.158755 32.941323 0 0 0-33.15871 32.941664 33.158755 32.941323 0 0 0 7.99021 21.44623 33.158755 32.941323 0 0 0 .0021.002 236.91057 236.91057 0 0 0 8.39742 10.56421 40.330678 40.330678 0 0 0 .001.002 236.91058 236.91058 0 0 0 .0041.005 236.91058 236.91058 0 0 0 .429432.50849 236.91058 236.91058 0 0 0 .431498.50747 236.91058 236.91058 0 0 0 .43253.50591 236.91058 236.91058 0 0 0 .433565.50487 236.91058 236.91058 0 0 0 .435634.50384 236.91058 236.91058 0 0 0 .436665.50178 236.91058 236.91058 0 0 0 .438217.50178 236.91058 236.91058 0 0 0 .439766.49971 236.91058 236.91058 0 0 0 .440799.49869 236.91058 236.91058 0 0 0 .442351.49763 236.91058 236.91058 0 0 0 .4439.4961 236.91058 236.91058 0 0 0 .136943.15245 40.330678 40.330678 0 0 0 .153995.14727 40.330678 40.330678 0 0 0 .200504.18759 40.330678 40.330678 0 0 0 .000529.00052 40.330678 40.330678 0 0 0 .000529.00053 40.330678 40.330678 0 0 0 .184486.17001 40.330678 40.330678 0 0 0 .01705.016 40.330678 40.330678 0 0 0 .08217.0754 40.330678 40.330678 0 0 0 .119888.11007 40.330678 40.330678 0 0 0 .198956.17828 40.330678 40.330678 0 0 0 .0057.005 40.330678 40.330678 0 0 0 .05064.045 40.330678 40.330678 0 0 0 .148828.13229 40.330678 40.330678 0 0 0 .0062.005 40.330678 40.330678 0 0 0 .00053.00053 40.330678 40.330678 0 0 0 .206188.17983 40.330678 40.330678 0 0 0 .181901.1571 40.330678 40.330678 0 0 0 .02584.0233 40.330678 40.330678 0 0 0 .146762.12454 40.330678 40.330678 0 0 0 .05891.0496 40.330678 40.330678 0 0 0 .0036.003 40.330678 40.330678 0 0 0 .0031.003 40.330678 40.330678 0 0 0 .18397.15451 40.330678 40.330678 0 0 0 .02377.0196 40.330678 40.330678 0 0 0 .01137.01 40.330678 40.330678 0 0 0 .0041.003 40.330678 40.330678 0 0 0 .195339.16226 40.330678 40.330678 0 0 0 .00053 0 40.330678 40.330678 0 0 0 .200503.16382 40.330678 40.330678 0 0 0 .0124.0103 40.330678 40.330678 0 0 0 .0083.006 40.330678 40.330678 0 0 0 .206188.16588 40.330678 40.330678 0 0 0 .214974.17053 40.330678 40.330678 0 0 0 .216007.1695 40.330678 40.330678 0 0 0 .217558.16794 40.330678 40.330678 0 0 0 .218592.1664 40.330678 40.330678 0 0 0 .173634.13023 40.330678 40.330678 0 0 0 .04599.0346 40.330678 40.330678 0 0 0 .09095.0672 40.330678 40.330678 0 0 0 .129711.0961 40.330678 40.330678 0 0 0 .05012.0357 40.330678 40.330678 0 0 0 .01551.0114 40.330678 40.330678 0 0 0 .157097.1142 40.330678 40.330678 0 0 0 .222724.1602 40.330678 40.330678 0 0 0 .104904.0739l-5.011065 5.01106 7.71219 7.71219 7.4905-7.4905a40.330678 40.330678 0 0 0 .177249.0605 40.330678 40.330678 0 0 0 .19172.0641 40.330678 40.330678 0 0 0 12.759947 2.07222 40.330678 40.330678 0 0 0 12.76045-2.07222 40.330678 40.330678 0 0 0 .0946-.0315 40.330678 40.330678 0 0 0 .14109-.0481 40.330678 40.330678 0 0 0 .0248-.008 40.330678 40.330678 0 0 0 .094-.032 40.330678 40.330678 0 0 0 .0171-.006l7.49101 7.49153 7.71219-7.71219-5.01054-5.01003a40.330678 40.330678 0 0 0 .002-.002 40.330678 40.330678 0 0 0 .015-.0103 40.330678 40.330678 0 0 0 .006-.004 40.330678 40.330678 0 0 0 .21756-.15607 40.330678 40.330678 0 0 0 .22273-.16122 40.330678 40.330678 0 0 0 .21186-.15607 40.330678 40.330678 0 0 0 .009-.007 40.330678 40.330678 0 0 0 .006-.004 40.330678 40.330678 0 0 0 .19482-.14521 40.330678 40.330678 0 0 0 .0196-.0155 40.330678 40.330678 0 0 0 .11989-.0904 40.330678 40.330678 0 0 0 .006-.005 40.330678 40.330678 0 0 0 .093-.0703 40.330678 40.330678 0 0 0 .077-.0599 40.330678 40.330678 0 0 0 .14056-.10801 40.330678 40.330678 0 0 0 .21652-.16898 40.330678 40.330678 0 0 0 .00053 0 40.330678 40.330678 0 0 0 .21549-.17001 40.330678 40.330678 0 0 0 .17105-.13695 40.330678 40.330678 0 0 0 .0429-.0346 40.330678 40.330678 0 0 0 .10956-.0894 40.330678 40.330678 0 0 0 .0605-.0491 40.330678 40.330678 0 0 0 .0424-.0351 40.330678 40.330678 0 0 0 .1695-.13953 40.330678 40.330678 0 0 0 .0429-.0357 40.330678 40.330678 0 0 0 .0186-.0155 40.330678 40.330678 0 0 0 .19223-.16071 40.330678 40.330678 0 0 0 .19327-.1633 40.330678 40.330678 0 0 0 .0165-.0139 40.330678 40.330678 0 0 0 .19223-.16486 40.330678 40.330678 0 0 0 .0155-.0145 40.330678 40.330678 0 0 0 .1912-.1664 40.330678 40.330678 0 0 0 .016-.0139 40.330678 40.330678 0 0 0 .19017-.16743 40.330678 40.330678 0 0 0 .016-.015 40.330678 40.330678 0 0 0 .17518-.15658 40.330678 40.330678 0 0 0 .0289-.0264 40.330678 40.330678 0 0 0 .17416-.15813 40.330678 40.330678 0 0 0 .0295-.0264 40.330678 40.330678 0 0 0 .12659-.11679 40.330678 40.330678 0 0 0 .0465-.0424 40.330678 40.330678 0 0 0 .0284-.0274 40.330678 40.330678 0 0 0 .17209-.1602 40.330678 40.330678 0 0 0 .0284-.0274 40.330678 40.330678 0 0 0 .0145-.0134 40.330678 40.330678 0 0 0 .17932-.1695 40.330678 40.330678 0 0 0 .006-.006 40.330678 40.330678 0 0 0 .0284-.0269 40.330678 40.330678 0 0 0 .003-.003 236.91057 236.91057 0 0 0 .00053-.00053 236.91058 236.91058 0 0 0 .44442-.49558 236.91058 236.91058 0 0 0 .44286-.49713 236.91058 236.91058 0 0 0 .4408-.49816 236.91058 236.91058 0 0 0 .43977-.49971 236.91058 236.91058 0 0 0 .43925-.50074 236.91058 236.91058 0 0 0 .43718-.5023 236.91058 236.91058 0 0 0 .43563-.50333 236.91058 236.91058 0 0 0 .4346-.50436 236.91058 236.91058 0 0 0 .43305-.50591 236.91058 236.91058 0 0 0 .4315-.50695 236.91058 236.91058 0 0 0 .42995-.50798 236.91058 236.91058 0 0 0 .12609-.14934 236.91058 236.91058 0 0 0 .007-.008 40.330678 40.330678 0 0 0 .00053-.001 236.91057 236.91057 0 0 0 8.40466-10.57248 33.158755 32.941323 0 0 0 .00053-.00053 33.158755 32.941323 0 0 0 7.98763-21.44314 33.158755 32.941323 0 0 0-33.15892-32.941664v-.00051a33.158755 32.941323 0 0 0-10.05726 1.55236 33.158755 32.941323 0 0 0-.00053 0 33.158755 32.941323 0 0 0-.23719.076 33.158755 32.941323 0 0 0-.2372.078 33.158755 32.941323 0 0 0-.23616.0796 33.158755 32.941323 0 0 0-.23564.0811 33.158755 32.941323 0 0 0-.23513.0832 33.158755 32.941323 0 0 0-.23409.0853 33.158755 32.941323 0 0 0-.2341.0863 33.158755 32.941323 0 0 0-.23306.0884 33.158755 32.941323 0 0 0-.23203.0904 33.158755 32.941323 0 0 0-.23203.0915 33.158755 32.941323 0 0 0-.23099.094 33.158755 32.941323 0 0 0-.22996.0951 33.158755 32.941323 0 0 0-.22996.0972 33.158755 32.941323 0 0 0-.22892.0987 33.158755 32.941323 0 0 0-.2279.10025 33.158755 32.941323 0 0 0-.22737.10232 33.158755 32.941323 0 0 0-.22635.10387 33.158755 32.941323 0 0 0-.22582.10542 33.158755 32.941323 0 0 0-.2248.10748 33.158755 32.941323 0 0 0-.22427.10853 33.158755 32.941323 0 0 0-.22324.11058 33.158755 32.941323 0 0 0-.22221.11266 33.158755 32.941323 0 0 0-.22169.11369 33.158755 32.941323 0 0 0-.22066.11575 33.158755 32.941323 0 0 0-.22014.11679 33.158755 32.941323 0 0 0-.21084.11472 33.158755 32.941323 0 0 0-.21911-.11885 33.158755 32.941323 0 0 0-.21963-.11731 33.158755 32.941323 0 0 0-.22065-.11524 33.158755 32.941323 0 0 0-.2217-.11369 33.158755 32.941323 0 0 0-.22272-.11213 33.158755 32.941323 0 0 0-.223243-.11059 33.158755 32.941323 0 0 0-.223761-.10904 33.158755 32.941323 0 0 0-.225309-.10697 33.158755 32.941323 0 0 0-.225824-.10542 33.158755 32.941323 0 0 0-.226343-.10387 33.158755 32.941323 0 0 0-.227378-.10232 33.158755 32.941323 0 0 0-.227891-.10025 33.158755 32.941323 0 0 0-.228928-.0987 33.158755 32.941323 0 0 0-.229444-.0971 33.158755 32.941323 0 0 0-.230476-.0951 33.158755 32.941323 0 0 0-.230994-.0935 33.158755 32.941323 0 0 0-.232027-.092 33.158755 32.941323 0 0 0-.232026-.0899 33.158755 32.941323 0 0 0-.233579-.0884 33.158755 32.941323 0 0 0-.233577-.0863 33.158755 32.941323 0 0 0-.234093-.0858 33.158755 32.941323 0 0 0-.23513-.0827 33.158755 32.941323 0 0 0-.235643-.0811 33.158755 32.941323 0 0 0-.236678-.0801 33.158755 32.941323 0 0 0-.236678-.077 33.158755 32.941323 0 0 0-.228928-.0739 33.158755 32.941323 0 0 0-.000529 0 33.158755 32.941323 0 0 0-10.058302-1.55184zm.0031 9.861414-.000529.00053a22.868547 22.718591 0 0 1 .0026 0 22.868547 22.718591 0 0 1 .207222.001 22.868547 22.718591 0 0 1 .207222.003 22.868547 22.718591 0 0 1 .207221.005 22.868547 22.718591 0 0 1 .206706.007 22.868547 22.718591 0 0 1 .207224.008 22.868547 22.718591 0 0 1 .206706.0103 22.868547 22.718591 0 0 1 .206706.0124 22.868546 22.718591 0 0 1 .000529 0 22.868547 22.718591 0 0 1 .206706.0134 22.868547 22.718591 0 0 1 .20619.0155 22.868547 22.718591 0 0 1 .206187.0181 22.868546 22.718591 0 0 1 .000529 0 22.868547 22.718591 0 0 1 .206187.0191 22.868547 22.718591 0 0 1 .20619.0217 22.868547 22.718591 0 0 1 .205671.0232 22.868547 22.718591 0 0 1 .205674.0253 22.868547 22.718591 0 0 1 .205155.0269 22.868547 22.718591 0 0 1 .205155.0289 22.868547 22.718591 0 0 1 .205156.0305 22.868547 22.718591 0 0 1 .204639.0325 22.868547 22.718591 0 0 1 .204121.0341 22.868547 22.718591 0 0 1 .204123.0362 22.868547 22.718591 0 0 1 .203605.0382 22.868547 22.718591 0 0 1 .203089.0398 22.868547 22.718591 0 0 1 .203086.0419 22.868547 22.718591 0 0 1 .202057.0434 22.868547 22.718591 0 0 1 .202055.0455 22.868546 22.718591 0 0 1 .000529 0 22.868547 22.718591 0 0 1 .201538.047 22.868547 22.718591 0 0 1 .201023.0486 22.868547 22.718591 0 0 1 .200503.0517 22.868546 22.718591 0 0 1 .00053 0 22.868547 22.718591 0 0 1 .199988.0522 22.868547 22.718591 0 0 1 .199988.0548 22.868547 22.718591 0 0 1 .199472.0558 22.868547 22.718591 0 0 1 .198437.0584 22.868547 22.718591 0 0 1 .198438.0594 22.868547 22.718591 0 0 1 .197919.0615 22.868547 22.718591 0 0 1 .196887.0631 22.868547 22.718591 0 0 1 .110587.0362 33.158755 32.941323 0 0 0-.165364.18604 33.158755 32.941323 0 0 0-.163814.18655 33.158755 32.941323 0 0 0-.162264.1881 33.158755 32.941323 0 0 0-.161229.18914 33.158755 32.941323 0 0 0-.159165.19068 33.158755 32.941323 0 0 0-.08113.0987A33.158755 32.941323 0 0 0 84.035 128.2371a33.158755 32.941323 0 0 0 7.99021 21.44624 33.158755 32.941323 0 0 0 .0021.002 236.91057 236.91057 0 0 0 2.329058 3.05614 163.38976 163.38976 0 0 1-4.924245 5.33973l-4.237471 4.23746-.0011.00053a163.38976 163.38976 0 0 1-.396875-.38395 163.38976 163.38976 0 0 1-.396359-.38552 163.38976 163.38976 0 0 1-.394806-.38757 163.38976 163.38976 0 0 1-.392739-.3886 163.38976 163.38976 0 0 1-.392743-.38965 163.38976 163.38976 0 0 1-.390673-.39119 163.38976 163.38976 0 0 1-.389128-.39222 163.38976 163.38976 0 0 1-.37982-.3855 30.144217 30.144217 0 0 1-.000529-.00053 163.38976 163.38976 0 0 1-5.356779-5.718 163.38976 163.38976 0 0 1-.311608-.34985 163.38976 163.38976 0 0 1-.366387-.41392 163.38976 163.38976 0 0 1-.364836-.41548 163.38976 163.38976 0 0 1-.363802-.41652 163.38976 163.38976 0 0 1-.362252-.41754 163.38976 163.38976 0 0 1-.360701-.41909 163.38976 163.38976 0 0 1-.359151-.42065 163.38976 163.38976 0 0 1-.3576-.42117 163.38976 163.38976 0 0 1-.356569-.42271 163.38976 163.38976 0 0 1-.355015-.42374 163.38976 163.38976 0 0 1-.353467-.4253 163.38976 163.38976 0 0 1-.352433-.42633 163.38976 163.38976 0 0 1-.350367-.42737 163.38976 163.38976 0 0 1-.349332-.42839 163.38976 163.38976 0 0 1-.347784-.42995 163.38976 163.38976 0 0 1-.346231-.43098 163.38976 163.38976 0 0 1-.344683-.43254 163.38976 163.38976 0 0 1-.343131-.43304 163.38976 163.38976 0 0 1-.342098-.4346 163.38976 163.38976 0 0 1-.340032-.43563 163.38976 163.38976 0 0 1-.338997-.43667 163.38976 163.38976 0 0 1-.337963-.43822 163.38976 163.38976 0 0 1-.335897-.43873 163.38976 163.38976 0 0 1-.334346-.44028 163.38976 163.38976 0 0 1-.333314-.44132 163.38976 163.38976 0 0 1-.157612-.20981 22.868547 22.718591 0 0 1-.0016-.001 22.868547 22.718591 0 0 1-.134359-.15658 22.868547 22.718591 0 0 1-.132811-.15813 22.868547 22.718591 0 0 1-.131256-.15916 22.868547 22.718591 0 0 1-.129708-.16072 22.868547 22.718591 0 0 1-.128158-.16123 22.868547 22.718591 0 0 1-.127125-.16278 22.868547 22.718591 0 0 1-.125055-.16381 22.868547 22.718591 0 0 1-.124024-.16537 22.868547 22.718591 0 0 1-.122475-.16588 22.868547 22.718591 0 0 1-.120923-.16691 22.868547 22.718591 0 0 1-.119372-.16847 22.868547 22.718591 0 0 1-.117821-.1695 22.868547 22.718591 0 0 1-.116272-.17001 22.868547 22.718591 0 0 1-.114723-.17157 22.868547 22.718591 0 0 1-.11317-.1726 22.868547 22.718591 0 0 1-.111622-.17311 22.868547 22.718591 0 0 1-.109554-.17467 22.868547 22.718591 0 0 1-.108521-.17466 22.868547 22.718591 0 0 1-.106969-.17674 22.868547 22.718591 0 0 1-.104903-.17725 22.868547 22.718591 0 0 1-.103353-.17828 22.868547 22.718591 0 0 1-.102319-.17984 22.868547 22.718591 0 0 1-.100253-.17983 22.868547 22.718591 0 0 1-.0987-.18087 22.868547 22.718591 0 0 1-.09664-.1819 22.868547 22.718591 0 0 1-.0956-.18293 22.868547 22.718591 0 0 1-.09353-.18346 22.868547 22.718591 0 0 1-.09198-.18448 22.868547 22.718591 0 0 1-.08992-.18552 22.868547 22.718591 0 0 1-.08888-.18603 22.868547 22.718591 0 0 1-.08682-.18707 22.868547 22.718591 0 0 1-.08527-.18759 22.868547 22.718591 0 0 1-.0832-.1881 22.868547 22.718591 0 0 1-.08165-.18914 22.868547 22.718591 0 0 1-.0801-.19017 22.868547 22.718591 0 0 1-.07855-.19017 22.868547 22.718591 0 0 1-.07648-.1912 22.868547 22.718591 0 0 1-.07441-.19223 22.868547 22.718591 0 0 1-.07338-.19276 22.868547 22.718591 0 0 1-.0708-.19327 22.868547 22.718591 0 0 1-.06976-.19378 22.868547 22.718591 0 0 1-.0677-.19431 22.868547 22.718591 0 0 1-.06615-.19533 22.868547 22.718591 0 0 1-.06408-.19586 22.868547 22.718591 0 0 1-.06253-.19585 22.868547 22.718591 0 0 1-.06046-.19689 22.868547 22.718591 0 0 1-.05891-.1974 22.868547 22.718591 0 0 1-.05684-.19792 22.868547 22.718591 0 0 1-.0553-.19844 22.868547 22.718591 0 0 1-.05323-.19895 22.868547 22.718591 0 0 1-.05168-.19948 22.868547 22.718591 0 0 1-.04961-.19947 22.868547 22.718591 0 0 1-.04806-.2005 22.868547 22.718591 0 0 1-.04599-.20051 22.868547 22.718591 0 0 1-.04393-.20102 22.868547 22.718591 0 0 1-.04237-.20153 22.868547 22.718591 0 0 1-.04082-.20206 22.868547 22.718591 0 0 1-.03876-.20206 22.868547 22.718591 0 0 1-.03669-.20257 22.868547 22.718591 0 0 1-.03514-.20257 22.868547 22.718591 0 0 1-.03307-.2036 22.868547 22.718591 0 0 1-.03152-.20309 22.868547 22.718591 0 0 1-.02946-.20412 22.868547 22.718591 0 0 1-.02739-.20361 22.868547 22.718591 0 0 1-.02584-.20412 22.868547 22.718591 0 0 1-.02377-.20464 22.868547 22.718591 0 0 1-.02222-.20464 22.868547 22.718591 0 0 1-.02015-.20515 22.868547 22.718591 0 0 1-.01809-.20464 22.868547 22.718591 0 0 1-.01654-.20516 22.868547 22.718591 0 0 1-.01447-.20567 22.868547 22.718591 0 0 1-.01292-.20516 22.868547 22.718591 0 0 1-.01085-.20567 22.868547 22.718591 0 0 1-.0088-.20567 22.868547 22.718591 0 0 1-.0072-.20567 22.868547 22.718591 0 0 1-.0052-.20567 22.868547 22.718591 0 0 1-.0031-.20567 22.868547 22.718591 0 0 1-.0016-.20619 22.868547 22.718591 0 0 1 0-.0522 22.868547 22.718591 0 0 1 .001-.20567 22.868547 22.718591 0 0 1 .0026-.20619 22.868547 22.718591 0 0 1 .0046-.20567 22.868547 22.718591 0 0 1 .0067-.20567 22.868547 22.718591 0 0 1 .0083-.20568 22.868547 22.718591 0 0 1 .01034-.20567 22.868547 22.718591 0 0 1 .0124-.20515 22.868547 22.718591 0 0 1 .01395-.20568 22.868547 22.718591 0 0 1 .01602-.20515 22.868547 22.718591 0 0 1 .01757-.20516 22.868547 22.718591 0 0 1 .01964-.20463 22.868547 22.718591 0 0 1 .0062-.0594 22.868547 22.718591 0 0 1 0-.003 22.868546 22.718591 0 0 1 8.373131-15.34532 22.868547 22.718591 0 0 1 .0041-.003 22.868547 22.718591 0 0 1 .161745-.12867 22.868547 22.718591 0 0 1 .162782-.12712 22.868547 22.718591 0 0 1 .16433-.12558 22.868547 22.718591 0 0 1 .164849-.12454 22.868547 22.718591 0 0 1 .166396-.12247 22.868547 22.718591 0 0 1 .167434-.12144 22.868547 22.718591 0 0 1 .168465-.11937 22.868547 22.718591 0 0 1 .170014-.11834 22.868546 22.718591 0 0 1 .170534-.11679 22.868547 22.718591 0 0 1 .171564-.11524 22.868547 22.718591 0 0 1 .173117-.1142 22.868546 22.718591 0 0 1 .173633-.11111 22.868547 22.718591 0 0 1 .174667-.11058 22.868547 22.718591 0 0 1 .175699-.10956 22.868547 22.718591 0 0 1 .17725-.10697 22.868547 22.718591 0 0 1 .177768-.10542 22.868547 22.718591 0 0 1 .1788-.10387 22.868547 22.718591 0 0 1 .179316-.10232 22.868547 22.718591 0 0 1 .180869-.10128 22.868546 22.718591 0 0 1 .181383-.0992 22.868547 22.718591 0 0 1 .18242-.0971 22.868547 22.718591 0 0 1 .183448-.0961 22.868547 22.718591 0 0 1 .183971-.0946 22.868547 22.718591 0 0 1 .185001-.0925 22.868547 22.718591 0 0 1 .186034-.091 22.868547 22.718591 0 0 1 .186554-.0889 22.868547 22.718591 0 0 1 .187584-.0879 22.868547 22.718591 0 0 1 .188102-.0858 22.868547 22.718591 0 0 1 .189135-.0842 22.868547 22.718591 0 0 1 .189653-.0827 22.868547 22.718591 0 0 1 .190685-.0806 22.868547 22.718591 0 0 1 .191204-.0791 22.868547 22.718591 0 0 1 .192236-.0775 22.868546 22.718591 0 0 1 .192754-.0754 22.868547 22.718591 0 0 1 .19327-.0739 22.868547 22.718591 0 0 1 .193786-.0724 22.868547 22.718591 0 0 1 .194821-.0703 22.868547 22.718591 0 0 1 .195336-.0687 22.868547 22.718591 0 0 1 .195853-.0667 22.868547 22.718591 0 0 1 .196888-.0651 22.868546 22.718591 0 0 1 .196887-.0631 22.868547 22.718591 0 0 1 .197921-.062 22.868546 22.718591 0 0 1 .19792-.0594 22.868547 22.718591 0 0 1 .198956-.0579 22.868547 22.718591 0 0 1 .199472-.0563 22.868547 22.718591 0 0 1 .199467-.0543 22.868547 22.718591 0 0 1 .200506-.0527 22.868547 22.718591 0 0 1 .20102-.0507 22.868547 22.718591 0 0 1 .201025-.0491 22.868547 22.718591 0 0 1 .201536-.047 22.868547 22.718591 0 0 1 .202057-.0455 22.868547 22.718591 0 0 1 .20257-.0434 22.868547 22.718591 0 0 1 .203089-.0419 22.868547 22.718591 0 0 1 .203089-.0398 22.868547 22.718591 0 0 1 .203602-.0382 22.868546 22.718591 0 0 1 .204126-.0362 22.868547 22.718591 0 0 1 .204121-.0346 22.868547 22.718591 0 0 1 .204639-.032 22.868547 22.718591 0 0 1 .204637-.031 22.868547 22.718591 0 0 1 .205155-.0289 22.868547 22.718591 0 0 1 .205674-.0269 22.868546 22.718591 0 0 1 .205669-.0253 22.868547 22.718591 0 0 1 .205676-.0233 22.868547 22.718591 0 0 1 .206185-.0212 22.868547 22.718591 0 0 1 .206192-.0196 22.868547 22.718591 0 0 1 .206187-.0176 22.868547 22.718591 0 0 1 .206706-.016 22.868547 22.718591 0 0 1 .206706-.0139 22.868547 22.718591 0 0 1 .206708-.0124 22.868547 22.718591 0 0 1 .207219-.0103 22.868546 22.718591 0 0 1 .206706-.008 22.868547 22.718591 0 0 1 .207224-.007 22.868547 22.718591 0 0 1 .207222-.005 22.868547 22.718591 0 0 1 .207224-.003 22.868547 22.718591 0 0 1 .207219-.001zm32.001658 0v.00053h.00053a22.868547 22.718591 0 0 1 .20722.001 22.868547 22.718591 0 0 1 .20722.003 22.868547 22.718591 0 0 1 .20723.005 22.868547 22.718591 0 0 1 .2067.007 22.868547 22.718591 0 0 1 .20723.008 22.868547 22.718591 0 0 1 .2067.0103 22.868547 22.718591 0 0 1 .20671.0119 22.868546 22.718591 0 0 1 .00053 0 22.868547 22.718591 0 0 1 .20671.0134 22.868547 22.718591 0 0 1 .20619.016 22.868547 22.718591 0 0 1 .20619.0181 22.868546 22.718591 0 0 1 .00053-.00053 22.868547 22.718591 0 0 1 .20619.0196 22.868547 22.718591 0 0 1 .20619.0217 22.868547 22.718591 0 0 1 .20567.0238 22.868547 22.718591 0 0 1 .20568.0243 22.868547 22.718591 0 0 1 .20515.0274 22.868547 22.718591 0 0 1 .20516.0284 22.868547 22.718591 0 0 1 .20464.031 22.868546 22.718591 0 0 1 .00053 0 22.868547 22.718591 0 0 1 .20464.032 22.868547 22.718591 0 0 1 .20412.0346 22.868547 22.718591 0 0 1 .20413.0362 22.868547 22.718591 0 0 1 .2036.0377 22.868547 22.718591 0 0 1 .20309.0403 22.868547 22.718591 0 0 1 .20309.0413 22.868547 22.718591 0 0 1 .20257.0434 22.868547 22.718591 0 0 1 .20205.0455 22.868547 22.718591 0 0 1 .20154.047 22.868547 22.718591 0 0 1 .20102.0491 22.868547 22.718591 0 0 1 .20102.0506 22.868547 22.718591 0 0 1 .19999.0527 22.868547 22.718591 0 0 1 .19999.0543 22.868547 22.718591 0 0 1 .19947.0563 22.868547 22.718591 0 0 1 .19895.0579 22.868547 22.718591 0 0 1 .19793.0594 22.868547 22.718591 0 0 1 .19792.0615 22.868547 22.718591 0 0 1 .19688.0636 22.868547 22.718591 0 0 1 .19637.0651 22.868546 22.718591 0 0 1 .00053 0 22.868547 22.718591 0 0 1 .19585.0667 22.868547 22.718591 0 0 1 .19534.0687 22.868547 22.718591 0 0 1 .19482.0703 22.868547 22.718591 0 0 1 .19379.0723 22.868547 22.718591 0 0 1 .19327.0734 22.868547 22.718591 0 0 1 .19275.076 22.868547 22.718591 0 0 1 .19224.077 22.868547 22.718591 0 0 1 .1912.0791 22.868547 22.718591 0 0 1 .19069.0811 22.868547 22.718591 0 0 1 .18965.0822 22.868547 22.718591 0 0 1 .18913.0842 22.868547 22.718591 0 0 1 .18811.0858 22.868547 22.718591 0 0 1 .18758.0879 22.868547 22.718591 0 0 1 .18707.0889 22.868547 22.718591 0 0 1 .18552.0909 22.868547 22.718591 0 0 1 .185.0925 22.868547 22.718591 0 0 1 .18397.0946 22.868546 22.718591 0 0 1 .00053 0 22.868547 22.718591 0 0 1 .18293.0956 22.868547 22.718591 0 0 1 .18242.0977 22.868546 22.718591 0 0 1 .00053 0 22.868547 22.718591 0 0 1 .18139.0992 22.868547 22.718591 0 0 1 .18035.10077 22.868547 22.718591 0 0 1 .17983.10232 22.868547 22.718591 0 0 1 .1788.10439 22.868547 22.718591 0 0 1 .17777.10542 22.868547 22.718591 0 0 1 .17673.10748 22.868547 22.718591 0 0 1 .17622.10853 22.868547 22.718591 0 0 1 .17467.11058 22.868547 22.718591 0 0 1 .17363.11214 22.868547 22.718591 0 0 1 .1726.11317 22.868546 22.718591 0 0 1 .00053 0 22.868547 22.718591 0 0 1 .17155.11472 22.868547 22.718591 0 0 1 .17054.11679 22.868547 22.718591 0 0 1 .1695.11834 22.868546 22.718591 0 0 1 .00052 0 22.868547 22.718591 0 0 1 .16848.11937 22.868547 22.718591 0 0 1 .16743.12144 22.868547 22.718591 0 0 1 .16639.12248 22.868547 22.718591 0 0 1 .16485.12454 22.868547 22.718591 0 0 1 .16433.12557 22.868547 22.718591 0 0 1 .16278.12712 22.868547 22.718591 0 0 1 .16175.12868 22.868547 22.718591 0 0 1 .002.001 22.868546 22.718591 0 0 1 8.37778 15.35254 22.868547 22.718591 0 0 1 .0202.20465 22.868547 22.718591 0 0 1 .0186.20515 22.868547 22.718591 0 0 1 .016.20515 22.868547 22.718591 0 0 1 .015.20517 22.868547 22.718591 0 0 1 .0124.20567 22.868547 22.718591 0 0 1 .0108.20567 22.868547 22.718591 0 0 1 .009.20568 22.868547 22.718591 0 0 1 .007.20567 22.868547 22.718591 0 0 1 .006.20567 22.868547 22.718591 0 0 1 .003.20567 22.868547 22.718591 0 0 1 .002.20567 22.868547 22.718591 0 0 1 0 .0594 22.868547 22.718591 0 0 1-.001.20567 22.868547 22.718591 0 0 1-.003.20619 22.868547 22.718591 0 0 1-.005.20568 22.868547 22.718591 0 0 1-.007.20567 22.868547 22.718591 0 0 1-.008.20567 22.868547 22.718591 0 0 1-.0103.20567 22.868547 22.718591 0 0 1-.0124.20516 22.868547 22.718591 0 0 1-.014.20567 22.868547 22.718591 0 0 1-.016.20515 22.868547 22.718591 0 0 1-.0181.20464 22.868547 22.718591 0 0 1-.0196.20516 22.868547 22.718591 0 0 1-.0212.20464 22.868547 22.718591 0 0 1-.0238.20464 22.868547 22.718591 0 0 1-.0253.20412 22.868547 22.718591 0 0 1-.0269.20412 22.868547 22.718591 0 0 1-.0289.20361 22.868547 22.718591 0 0 1-.031.2036 22.868547 22.718591 0 0 1-.0326.20361 22.868547 22.718591 0 0 1-.0346.20257 22.868547 22.718591 0 0 1-.0367.20257 22.868547 22.718591 0 0 1-.0382.20257 22.868547 22.718591 0 0 1-.0398.20206 22.868547 22.718591 0 0 1-.0424.20153 22.868547 22.718591 0 0 1-.0434.20102 22.868547 22.718591 0 0 1-.046.20051 22.868547 22.718591 0 0 1-.047.2005 22.868547 22.718591 0 0 1-.0496.19999 22.868547 22.718591 0 0 1-.0512.19947 22.868547 22.718591 0 0 1-.0527.19896 22.868547 22.718591 0 0 1-.0548.19843 22.868547 22.718591 0 0 1-.0563.19792 22.868547 22.718591 0 0 1-.0584.19793 22.868547 22.718591 0 0 1-.0599.19688 22.868547 22.718591 0 0 1-.062.19637 22.868547 22.718591 0 0 1-.0641.19586 22.868547 22.718591 0 0 1-.0651.19533 22.868547 22.718591 0 0 1-.0677.19431 22.868547 22.718591 0 0 1-.0687.1943 22.868547 22.718591 0 0 1-.0708.19327 22.868547 22.718591 0 0 1-.0729.19275 22.868547 22.718591 0 0 1-.0739.19224 22.868547 22.718591 0 0 1-.0765.19172 22.868547 22.718591 0 0 1-.0775.19069 22.868547 22.718591 0 0 1-.0796.18965 22.868547 22.718591 0 0 1-.0816.18965 22.868547 22.718591 0 0 1-.0827.18862 22.868547 22.718591 0 0 1-.0847.18758 22.868547 22.718591 0 0 1-.0863.18707 22.868547 22.718591 0 0 1-.0884.18656 22.868547 22.718591 0 0 1-.0899.18551 22.868547 22.718591 0 0 1-.0915.18449 22.868547 22.718591 0 0 1-.093.18397 22.868547 22.718591 0 0 1-.0951.18293 22.868547 22.718591 0 0 1-.0966.1819 22.868547 22.718591 0 0 1-.0982.18139 22.868547 22.718591 0 0 1-.0997.18035 22.868547 22.718591 0 0 1-.10128.17932 22.868547 22.718591 0 0 1-.10336.17828 22.868547 22.718591 0 0 1-.1049.17777 22.868547 22.718591 0 0 1-.10594.17673 22.868547 22.718591 0 0 1-.108.1757 22.868547 22.718591 0 0 1-.10955.17467 22.868547 22.718591 0 0 1-.11111.17363 22.868547 22.718591 0 0 1-.11317.1726 22.868547 22.718591 0 0 1-.1142.17156 22.868547 22.718591 0 0 1-.11576.17105 22.868547 22.718591 0 0 1-.1173.1695 22.868547 22.718591 0 0 1-.11886.16847 22.868547 22.718591 0 0 1-.12041.16743 22.868547 22.718591 0 0 1-.12247.1664 22.868547 22.718591 0 0 1-.12351.16536 22.868547 22.718591 0 0 1-.12505.16382 22.868547 22.718591 0 0 1-.12609.16329 22.868547 22.718591 0 0 1-.12816.16175 22.868547 22.718591 0 0 1-.12971.16071 22.868547 22.718591 0 0 1-.13074.15917 22.868547 22.718591 0 0 1-.13229.15864 22.868547 22.718591 0 0 1-.13384.1571 22.868547 22.718591 0 0 1-.032.0382 22.868547 22.718591 0 0 0 0 .00052 163.38976 163.38976 0 0 1-.33228.44183 163.38976 163.38976 0 0 1-.33383.4408 163.38976 163.38976 0 0 1-.33538.43977 163.38976 163.38976 0 0 1-.33694.43821 163.38976 163.38976 0 0 1-.33796.43719 163.38976 163.38976 0 0 1-.34004.43666 163.38976 163.38976 0 0 1-.34105.4346 163.38976 163.38976 0 0 1-.34262.43408 163.38976 163.38976 0 0 1-.34417.43253 163.38976 163.38976 0 0 1-.34571.4315 163.38976 163.38976 0 0 1-.34674.43047 163.38976 163.38976 0 0 1-.34882.42943 163.38976 163.38976 0 0 1-.34985.42788 163.38976 163.38976 0 0 1-.35141.42685 163.38976 163.38976 0 0 1-.35294.42581 163.38976 163.38976 0 0 1-.3545.42426 163.38976 163.38976 0 0 1-.35553.42323 163.38976 163.38976 0 0 1-.35709.4222 163.38976 163.38976 0 0 1-.35863.42066 163.38976 163.38976 0 0 1-.36019.4196 163.38976 163.38976 0 0 1-.36122.41858 163.38976 163.38976 0 0 1-.36277.41703 163.38976 163.38976 0 0 1-.36431.41599 163.38976 163.38976 0 0 1-.36588.41446 163.38976 163.38976 0 0 1-.3669.4134 163.38976 163.38976 0 0 1-.12402.13849 30.144217 30.144217 0 0 1-.001.002 163.38976 163.38976 0 0 1-5.3511 5.71179 163.38976 163.38976 0 0 1-.19533.19844 163.38976 163.38976 0 0 1-.38862.39274 163.38976 163.38976 0 0 1-.39016.39171 163.38976 163.38976 0 0 1-.39171.39016 163.38976 163.38976 0 0 1-.39324.3886 163.38976 163.38976 0 0 1-.39429.38758 163.38976 163.38976 0 0 1-.39637.38602 163.38976 163.38976 0 0 1-.39635.38499 163.38976 163.38976 0 0 1-.19069.18397l-.00053.001a163.38976 163.38976 0 0 1-.0119-.0114l-4.20956-4.20955a163.38976 163.38976 0 0 1-4.94079-5.35782 236.91057 236.91057 0 0 0 2.33216-3.05976 33.158755 32.941323 0 0 0 .00053-.00052 33.158755 32.941323 0 0 0 7.98762-21.44314 33.158755 32.941323 0 0 0-7.50496-20.87211 33.158755 32.941323 0 0 0-.12609-.15192 33.158755 32.941323 0 0 0-.15968-.19017 33.158755 32.941323 0 0 0-.16175-.18914 33.158755 32.941323 0 0 0-.16278-.18759 33.158755 32.941323 0 0 0-.16433-.18655 33.158755 32.941323 0 0 0-.11989-.13487 22.868547 22.718591 0 0 1 .19688-.0641 22.868547 22.718591 0 0 1 .19741-.0625 22.868547 22.718591 0 0 1 .19792-.061 22.868547 22.718591 0 0 1 .19844-.0589 22.868547 22.718591 0 0 1 .19895-.0574 22.868547 22.718591 0 0 1 .19947-.0553 22.868547 22.718591 0 0 1 .19999-.0532 22.868547 22.718591 0 0 1 .2005-.0522 22.868547 22.718591 0 0 1 .20103-.0496 22.868547 22.718591 0 0 1 .20154-.0481 22.868547 22.718591 0 0 1 .20205-.0465 22.868547 22.718591 0 0 1 .20205-.0444 22.868547 22.718591 0 0 1 .20258-.0429 22.868547 22.718591 0 0 1 .20308-.0408 22.868547 22.718591 0 0 1 .20361-.0388 22.868547 22.718591 0 0 1 .20361-.0372 22.868547 22.718591 0 0 1 .20412-.0357 22.868547 22.718591 0 0 1 .20464-.0336 22.868547 22.718591 0 0 1 .20463-.0315 22.868547 22.718591 0 0 1 .20516-.03 22.868547 22.718591 0 0 1 .20516-.0279 22.868547 22.718591 0 0 1 .20567-.0264 22.868547 22.718591 0 0 1 .20567-.0243 22.868547 22.718591 0 0 1 .20567-.0222 22.868547 22.718591 0 0 1 .20619-.0207 22.868547 22.718591 0 0 1 .20619-.0186 22.868547 22.718591 0 0 1 .2067-.017 22.868547 22.718591 0 0 1 .20671-.015 22.868547 22.718591 0 0 1 .20671-.0129 22.868547 22.718591 0 0 1 .2067-.0114 22.868547 22.718591 0 0 1 .20723-.009 22.868547 22.718591 0 0 1 .2067-.008 22.868547 22.718591 0 0 1 .20722-.006 22.868547 22.718591 0 0 1 .20722-.004 22.868547 22.718591 0 0 1 .20723-.002 22.868547 22.718591 0 0 1 .11575-.00053zm-15.99954 6.48746a22.868546 22.718591 0 0 1 6.86883 16.23208 22.868546 22.718591 0 0 1-5.50922 14.78876 22.868546 22.718591 0 0 0 0 .00052 163.38976 163.38976 0 0 1-1.35857 1.78749 163.38976 163.38976 0 0 1-1.357027-1.78491 22.868546 22.718591 0 0 1-.0021-.001 22.868546 22.718591 0 0 1-5.510776-14.79083 22.868546 22.718591 0 0 1 6.868833-16.23208zm27.38542 35.93424a22.868546 22.718591 0 0 1-2.38178 1.18081l-.0429.0651a22.868546 22.868546 0 0 0 .13798-.061 22.868546 22.868546 0 0 0 .15659-.0713 22.868546 22.868546 0 0 0 .15605-.0718 22.868546 22.868546 0 0 0 .15503-.0734 22.868546 22.868546 0 0 0 .15503-.0744 22.868546 22.868546 0 0 0 .15401-.0749 22.868546 22.868546 0 0 0 .15399-.0765 22.868546 22.868546 0 0 0 .15296-.078 22.868546 22.868546 0 0 0 .15245-.0791 22.868546 22.868546 0 0 0 .15193-.0801 22.868546 22.868546 0 0 0 .15141-.0811 22.868546 22.868546 0 0 0 .15089-.0822 22.868546 22.868546 0 0 0 .14987-.0837 22.868546 22.868546 0 0 0 .14933-.0853 22.868546 22.868546 0 0 0 .14884-.0858 22.868546 22.868546 0 0 0 .1483-.0873zm-27.3849 13.58108a236.91057 236.91057 0 0 0 4.04988 4.63486 30.144217 30.144217 0 0 1-4.05039.27337 30.144217 30.144217 0 0 1-4.049368-.27337 236.91057 236.91057 0 0 0 4.049878-4.63486z" style="font-variation-settings:normal" transform="translate(-52.034852 -95.293556)"/></svg>