<?xml version="1.0" encoding="UTF-8" standalone="no"?>
<svg
   width="98.312904mm"
   height="87.071915mm"
   viewBox="0 0 98.312904 87.071915"
   version="1.1"
   id="svg8"
   inkscape:version="1.3.2 (091e20ef0f, 2023-11-25)"
   sodipodi:docname="wortschatz.svg"
   xmlns:inkscape="http://www.inkscape.org/namespaces/inkscape"
   xmlns:sodipodi="http://sodipodi.sourceforge.net/DTD/sodipodi-0.dtd"
   xmlns:xlink="http://www.w3.org/1999/xlink"
   xmlns="http://www.w3.org/2000/svg"
   xmlns:svg="http://www.w3.org/2000/svg"
   xmlns:rdf="http://www.w3.org/1999/02/22-rdf-syntax-ns#"
   xmlns:cc="http://creativecommons.org/ns#"
   xmlns:dc="http://purl.org/dc/elements/1.1/">
  <defs
     id="defs2">
    <linearGradient
       id="linearGradient3"
       inkscape:collect="always">
      <stop
         style="stop-color:#ec872c;stop-opacity:1;"
         offset="0.0001"
         id="stop4" />
      <stop
         style="stop-color:#cc5b02;stop-opacity:1;"
         offset="1"
         id="stop3" />
    </linearGradient>
    <linearGradient
       inkscape:collect="always"
       xlink:href="#linearGradient3"
       id="linearGradient1"
       x1="101.19462"
       y1="144.45197"
       x2="124.51677"
       y2="169.64325"
       gradientUnits="userSpaceOnUse" />
  </defs>
  <sodipodi:namedview
     id="base"
     pagecolor="#ffffff"
     bordercolor="#666666"
     borderopacity="1.0"
     inkscape:pageopacity="0.0"
     inkscape:pageshadow="2"
     inkscape:zoom="0.85761589"
     inkscape:cx="202.88803"
     inkscape:cy="199.97297"
     inkscape:document-units="mm"
     inkscape:current-layer="layer1"
     inkscape:document-rotation="0"
     showgrid="false"
     fit-margin-top="0"
     fit-margin-left="0"
     fit-margin-right="0"
     fit-margin-bottom="0"
     inkscape:window-width="1896"
     inkscape:window-height="1152"
     inkscape:window-x="1032"
     inkscape:window-y="8"
     inkscape:window-maximized="1"
     inkscape:showpageshadow="2"
     inkscape:pagecheckerboard="0"
     inkscape:deskcolor="#d1d1d1" />
  <metadata
     id="metadata5">
    <rdf:RDF>
      <cc:Work
         rdf:about="">
        <dc:format>image/svg+xml</dc:format>
        <dc:type
           rdf:resource="http://purl.org/dc/dcmitype/StillImage" />
        <dc:title />
      </cc:Work>
    </rdf:RDF>
  </metadata>
  <g
     inkscape:label="Шар 1"
     inkscape:groupmode="layer"
     id="layer1"
     transform="translate(-52.034852,-95.293556)">
    <path
       id="path750"
       style="font-variation-settings:normal;opacity:1;vector-effect:none;fill:url(#linearGradient1);fill-opacity:1;fill-rule:evenodd;stroke-width:0.377936;stroke-linecap:butt;stroke-linejoin:miter;stroke-miterlimit:4;stroke-dasharray:none;stroke-dashoffset:0;stroke-opacity:1;stop-color:#000000;stop-opacity:1"
       d="m 85.188362,95.294236 0.0052,0.001 a 33.158755,32.941323 0 0 0 -33.15871,32.941664 33.158755,32.941323 0 0 0 7.99021,21.44623 33.158755,32.941323 0 0 0 0.0021,0.002 236.91057,236.91057 0 0 0 8.39742,10.56421 40.330678,40.330678 0 0 0 0.001,0.002 236.91058,236.91058 0 0 0 0.0041,0.005 236.91058,236.91058 0 0 0 0.429432,0.50849 236.91058,236.91058 0 0 0 0.431498,0.50747 236.91058,236.91058 0 0 0 0.43253,0.50591 236.91058,236.91058 0 0 0 0.433565,0.50487 236.91058,236.91058 0 0 0 0.435634,0.50384 236.91058,236.91058 0 0 0 0.436665,0.50178 236.91058,236.91058 0 0 0 0.438217,0.50178 236.91058,236.91058 0 0 0 0.439766,0.49971 236.91058,236.91058 0 0 0 0.440799,0.49869 236.91058,236.91058 0 0 0 0.442351,0.49763 236.91058,236.91058 0 0 0 0.4439,0.4961 236.91058,236.91058 0 0 0 0.136943,0.15245 40.330678,40.330678 0 0 0 0.153995,0.14727 40.330678,40.330678 0 0 0 0.200504,0.18759 40.330678,40.330678 0 0 0 5.29e-4,5.2e-4 40.330678,40.330678 0 0 0 5.29e-4,5.3e-4 40.330678,40.330678 0 0 0 0.184486,0.17001 40.330678,40.330678 0 0 0 0.01705,0.016 40.330678,40.330678 0 0 0 0.08217,0.0754 40.330678,40.330678 0 0 0 0.119888,0.11007 40.330678,40.330678 0 0 0 0.198956,0.17828 40.330678,40.330678 0 0 0 0.0057,0.005 40.330678,40.330678 0 0 0 0.05064,0.045 40.330678,40.330678 0 0 0 0.148828,0.13229 40.330678,40.330678 0 0 0 0.0062,0.005 40.330678,40.330678 0 0 0 5.3e-4,5.3e-4 40.330678,40.330678 0 0 0 0.206188,0.17983 40.330678,40.330678 0 0 0 0.181901,0.1571 40.330678,40.330678 0 0 0 0.02584,0.0233 40.330678,40.330678 0 0 0 0.146762,0.12454 40.330678,40.330678 0 0 0 0.05891,0.0496 40.330678,40.330678 0 0 0 0.0036,0.003 40.330678,40.330678 0 0 0 0.0031,0.003 40.330678,40.330678 0 0 0 0.18397,0.15451 40.330678,40.330678 0 0 0 0.02377,0.0196 40.330678,40.330678 0 0 0 0.01137,0.01 40.330678,40.330678 0 0 0 0.0041,0.003 40.330678,40.330678 0 0 0 0.195339,0.16226 40.330678,40.330678 0 0 0 5.3e-4,0 40.330678,40.330678 0 0 0 0.200503,0.16382 40.330678,40.330678 0 0 0 0.0124,0.0103 40.330678,40.330678 0 0 0 0.0083,0.006 40.330678,40.330678 0 0 0 0.206188,0.16588 40.330678,40.330678 0 0 0 0.214974,0.17053 40.330678,40.330678 0 0 0 0.216007,0.1695 40.330678,40.330678 0 0 0 0.217558,0.16794 40.330678,40.330678 0 0 0 0.218592,0.1664 40.330678,40.330678 0 0 0 0.173634,0.13023 40.330678,40.330678 0 0 0 0.04599,0.0346 40.330678,40.330678 0 0 0 0.09095,0.0672 40.330678,40.330678 0 0 0 0.129711,0.0961 40.330678,40.330678 0 0 0 0.05012,0.0357 40.330678,40.330678 0 0 0 0.01551,0.0114 40.330678,40.330678 0 0 0 0.157097,0.1142 40.330678,40.330678 0 0 0 0.222724,0.1602 40.330678,40.330678 0 0 0 0.104904,0.0739 l -5.011065,5.01106 7.71219,7.71219 7.4905,-7.4905 a 40.330678,40.330678 0 0 0 0.177249,0.0605 40.330678,40.330678 0 0 0 0.19172,0.0641 40.330678,40.330678 0 0 0 12.759947,2.07222 40.330678,40.330678 0 0 0 12.76045,-2.07222 40.330678,40.330678 0 0 0 0.0946,-0.0315 40.330678,40.330678 0 0 0 0.14109,-0.0481 40.330678,40.330678 0 0 0 0.0248,-0.008 40.330678,40.330678 0 0 0 0.094,-0.032 40.330678,40.330678 0 0 0 0.0171,-0.006 l 7.49101,7.49153 7.71219,-7.71219 -5.01054,-5.01003 a 40.330678,40.330678 0 0 0 0.002,-0.002 40.330678,40.330678 0 0 0 0.015,-0.0103 40.330678,40.330678 0 0 0 0.006,-0.004 40.330678,40.330678 0 0 0 0.21756,-0.15607 40.330678,40.330678 0 0 0 0.22273,-0.16122 40.330678,40.330678 0 0 0 0.21186,-0.15607 40.330678,40.330678 0 0 0 0.009,-0.007 40.330678,40.330678 0 0 0 0.006,-0.004 40.330678,40.330678 0 0 0 0.19482,-0.14521 40.330678,40.330678 0 0 0 0.0196,-0.0155 40.330678,40.330678 0 0 0 0.11989,-0.0904 40.330678,40.330678 0 0 0 0.006,-0.005 40.330678,40.330678 0 0 0 0.093,-0.0703 40.330678,40.330678 0 0 0 0.077,-0.0599 40.330678,40.330678 0 0 0 0.14056,-0.10801 40.330678,40.330678 0 0 0 0.21652,-0.16898 40.330678,40.330678 0 0 0 5.3e-4,0 40.330678,40.330678 0 0 0 0.21549,-0.17001 40.330678,40.330678 0 0 0 0.17105,-0.13695 40.330678,40.330678 0 0 0 0.0429,-0.0346 40.330678,40.330678 0 0 0 0.10956,-0.0894 40.330678,40.330678 0 0 0 0.0605,-0.0491 40.330678,40.330678 0 0 0 0.0424,-0.0351 40.330678,40.330678 0 0 0 0.1695,-0.13953 40.330678,40.330678 0 0 0 0.0429,-0.0357 40.330678,40.330678 0 0 0 0.0186,-0.0155 40.330678,40.330678 0 0 0 0.19223,-0.16071 40.330678,40.330678 0 0 0 0.19327,-0.1633 40.330678,40.330678 0 0 0 0.0165,-0.0139 40.330678,40.330678 0 0 0 0.19223,-0.16486 40.330678,40.330678 0 0 0 0.0155,-0.0145 40.330678,40.330678 0 0 0 0.1912,-0.1664 40.330678,40.330678 0 0 0 0.016,-0.0139 40.330678,40.330678 0 0 0 0.19017,-0.16743 40.330678,40.330678 0 0 0 0.016,-0.015 40.330678,40.330678 0 0 0 0.17518,-0.15658 40.330678,40.330678 0 0 0 0.0289,-0.0264 40.330678,40.330678 0 0 0 0.17416,-0.15813 40.330678,40.330678 0 0 0 0.0295,-0.0264 40.330678,40.330678 0 0 0 0.12659,-0.11679 40.330678,40.330678 0 0 0 0.0465,-0.0424 40.330678,40.330678 0 0 0 0.0284,-0.0274 40.330678,40.330678 0 0 0 0.17209,-0.1602 40.330678,40.330678 0 0 0 0.0284,-0.0274 40.330678,40.330678 0 0 0 0.0145,-0.0134 40.330678,40.330678 0 0 0 0.17932,-0.1695 40.330678,40.330678 0 0 0 0.006,-0.006 40.330678,40.330678 0 0 0 0.0284,-0.0269 40.330678,40.330678 0 0 0 0.003,-0.003 236.91057,236.91057 0 0 0 5.3e-4,-5.3e-4 236.91058,236.91058 0 0 0 0.44442,-0.49558 236.91058,236.91058 0 0 0 0.44286,-0.49713 236.91058,236.91058 0 0 0 0.4408,-0.49816 236.91058,236.91058 0 0 0 0.43977,-0.49971 236.91058,236.91058 0 0 0 0.43925,-0.50074 236.91058,236.91058 0 0 0 0.43718,-0.5023 236.91058,236.91058 0 0 0 0.43563,-0.50333 236.91058,236.91058 0 0 0 0.4346,-0.50436 236.91058,236.91058 0 0 0 0.43305,-0.50591 236.91058,236.91058 0 0 0 0.4315,-0.50695 236.91058,236.91058 0 0 0 0.42995,-0.50798 236.91058,236.91058 0 0 0 0.12609,-0.14934 236.91058,236.91058 0 0 0 0.007,-0.008 40.330678,40.330678 0 0 0 5.3e-4,-0.001 236.91057,236.91057 0 0 0 8.40466,-10.57248 33.158755,32.941323 0 0 0 5.3e-4,-5.3e-4 33.158755,32.941323 0 0 0 7.98763,-21.44314 33.158755,32.941323 0 0 0 -33.15892,-32.941664 v -5.1e-4 a 33.158755,32.941323 0 0 0 -10.05726,1.55236 33.158755,32.941323 0 0 0 -5.3e-4,0 33.158755,32.941323 0 0 0 -0.23719,0.076 33.158755,32.941323 0 0 0 -0.2372,0.078 33.158755,32.941323 0 0 0 -0.23616,0.0796 33.158755,32.941323 0 0 0 -0.23564,0.0811 33.158755,32.941323 0 0 0 -0.23513,0.0832 33.158755,32.941323 0 0 0 -0.23409,0.0853 33.158755,32.941323 0 0 0 -0.2341,0.0863 33.158755,32.941323 0 0 0 -0.23306,0.0884 33.158755,32.941323 0 0 0 -0.23203,0.0904 33.158755,32.941323 0 0 0 -0.23203,0.0915 33.158755,32.941323 0 0 0 -0.23099,0.094 33.158755,32.941323 0 0 0 -0.22996,0.0951 33.158755,32.941323 0 0 0 -0.22996,0.0972 33.158755,32.941323 0 0 0 -0.22892,0.0987 33.158755,32.941323 0 0 0 -0.2279,0.10025 33.158755,32.941323 0 0 0 -0.22737,0.10232 33.158755,32.941323 0 0 0 -0.22635,0.10387 33.158755,32.941323 0 0 0 -0.22582,0.10542 33.158755,32.941323 0 0 0 -0.2248,0.10748 33.158755,32.941323 0 0 0 -0.22427,0.10853 33.158755,32.941323 0 0 0 -0.22324,0.11058 33.158755,32.941323 0 0 0 -0.22221,0.11266 33.158755,32.941323 0 0 0 -0.22169,0.11369 33.158755,32.941323 0 0 0 -0.22066,0.11575 33.158755,32.941323 0 0 0 -0.22014,0.11679 33.158755,32.941323 0 0 0 -0.21084,0.11472 33.158755,32.941323 0 0 0 -0.21911,-0.11885 33.158755,32.941323 0 0 0 -0.21963,-0.11731 33.158755,32.941323 0 0 0 -0.22065,-0.11524 33.158755,32.941323 0 0 0 -0.2217,-0.11369 33.158755,32.941323 0 0 0 -0.22272,-0.11213 33.158755,32.941323 0 0 0 -0.223243,-0.11059 33.158755,32.941323 0 0 0 -0.223761,-0.10904 33.158755,32.941323 0 0 0 -0.225309,-0.10697 33.158755,32.941323 0 0 0 -0.225824,-0.10542 33.158755,32.941323 0 0 0 -0.226343,-0.10387 33.158755,32.941323 0 0 0 -0.227378,-0.10232 33.158755,32.941323 0 0 0 -0.227891,-0.10025 33.158755,32.941323 0 0 0 -0.228928,-0.0987 33.158755,32.941323 0 0 0 -0.229444,-0.0971 33.158755,32.941323 0 0 0 -0.230476,-0.0951 33.158755,32.941323 0 0 0 -0.230994,-0.0935 33.158755,32.941323 0 0 0 -0.232027,-0.092 33.158755,32.941323 0 0 0 -0.232026,-0.0899 33.158755,32.941323 0 0 0 -0.233579,-0.0884 33.158755,32.941323 0 0 0 -0.233577,-0.0863 33.158755,32.941323 0 0 0 -0.234093,-0.0858 33.158755,32.941323 0 0 0 -0.23513,-0.0827 33.158755,32.941323 0 0 0 -0.235643,-0.0811 33.158755,32.941323 0 0 0 -0.236678,-0.0801 33.158755,32.941323 0 0 0 -0.236678,-0.077 33.158755,32.941323 0 0 0 -0.228928,-0.0739 33.158755,32.941323 0 0 0 -5.29e-4,0 33.158755,32.941323 0 0 0 -10.058302,-1.55184 z m 0.0031,9.861414 -5.29e-4,5.3e-4 a 22.868547,22.718591 0 0 1 0.0026,0 22.868547,22.718591 0 0 1 0.207222,10e-4 22.868547,22.718591 0 0 1 0.207222,0.003 22.868547,22.718591 0 0 1 0.207221,0.005 22.868547,22.718591 0 0 1 0.206706,0.007 22.868547,22.718591 0 0 1 0.207224,0.008 22.868547,22.718591 0 0 1 0.206706,0.0103 22.868547,22.718591 0 0 1 0.206706,0.0124 22.868546,22.718591 0 0 1 5.29e-4,0 22.868547,22.718591 0 0 1 0.206706,0.0134 22.868547,22.718591 0 0 1 0.20619,0.0155 22.868547,22.718591 0 0 1 0.206187,0.0181 22.868546,22.718591 0 0 1 5.29e-4,0 22.868547,22.718591 0 0 1 0.206187,0.0191 22.868547,22.718591 0 0 1 0.20619,0.0217 22.868547,22.718591 0 0 1 0.205671,0.0232 22.868547,22.718591 0 0 1 0.205674,0.0253 22.868547,22.718591 0 0 1 0.205155,0.0269 22.868547,22.718591 0 0 1 0.205155,0.0289 22.868547,22.718591 0 0 1 0.205156,0.0305 22.868547,22.718591 0 0 1 0.204639,0.0325 22.868547,22.718591 0 0 1 0.204121,0.0341 22.868547,22.718591 0 0 1 0.204123,0.0362 22.868547,22.718591 0 0 1 0.203605,0.0382 22.868547,22.718591 0 0 1 0.203089,0.0398 22.868547,22.718591 0 0 1 0.203086,0.0419 22.868547,22.718591 0 0 1 0.202057,0.0434 22.868547,22.718591 0 0 1 0.202055,0.0455 22.868546,22.718591 0 0 1 5.29e-4,0 22.868547,22.718591 0 0 1 0.201538,0.047 22.868547,22.718591 0 0 1 0.201023,0.0486 22.868547,22.718591 0 0 1 0.200503,0.0517 22.868546,22.718591 0 0 1 5.3e-4,0 22.868547,22.718591 0 0 1 0.199988,0.0522 22.868547,22.718591 0 0 1 0.199988,0.0548 22.868547,22.718591 0 0 1 0.199472,0.0558 22.868547,22.718591 0 0 1 0.198437,0.0584 22.868547,22.718591 0 0 1 0.198438,0.0594 22.868547,22.718591 0 0 1 0.197919,0.0615 22.868547,22.718591 0 0 1 0.196887,0.0631 22.868547,22.718591 0 0 1 0.110587,0.0362 33.158755,32.941323 0 0 0 -0.165364,0.18604 33.158755,32.941323 0 0 0 -0.163814,0.18655 33.158755,32.941323 0 0 0 -0.162264,0.1881 33.158755,32.941323 0 0 0 -0.161229,0.18914 33.158755,32.941323 0 0 0 -0.159165,0.19068 33.158755,32.941323 0 0 0 -0.08113,0.0987 33.158755,32.941323 0 0 0 -7.506517,20.87211 33.158755,32.941323 0 0 0 7.99021,21.44624 33.158755,32.941323 0 0 0 0.0021,0.002 236.91057,236.91057 0 0 0 2.329058,3.05614 163.38976,163.38976 0 0 1 -4.924245,5.33973 l -4.237471,4.23746 -0.0011,5.3e-4 a 163.38976,163.38976 0 0 1 -0.396875,-0.38395 163.38976,163.38976 0 0 1 -0.396359,-0.38552 163.38976,163.38976 0 0 1 -0.394806,-0.38757 163.38976,163.38976 0 0 1 -0.392739,-0.3886 163.38976,163.38976 0 0 1 -0.392743,-0.38965 163.38976,163.38976 0 0 1 -0.390673,-0.39119 163.38976,163.38976 0 0 1 -0.389128,-0.39222 163.38976,163.38976 0 0 1 -0.37982,-0.3855 30.144217,30.144217 0 0 1 -5.29e-4,-5.3e-4 163.38976,163.38976 0 0 1 -5.356779,-5.718 163.38976,163.38976 0 0 1 -0.311608,-0.34985 163.38976,163.38976 0 0 1 -0.366387,-0.41392 163.38976,163.38976 0 0 1 -0.364836,-0.41548 163.38976,163.38976 0 0 1 -0.363802,-0.41652 163.38976,163.38976 0 0 1 -0.362252,-0.41754 163.38976,163.38976 0 0 1 -0.360701,-0.41909 163.38976,163.38976 0 0 1 -0.359151,-0.42065 163.38976,163.38976 0 0 1 -0.3576,-0.42117 163.38976,163.38976 0 0 1 -0.356569,-0.42271 163.38976,163.38976 0 0 1 -0.355015,-0.42374 163.38976,163.38976 0 0 1 -0.353467,-0.4253 163.38976,163.38976 0 0 1 -0.352433,-0.42633 163.38976,163.38976 0 0 1 -0.350367,-0.42737 163.38976,163.38976 0 0 1 -0.349332,-0.42839 163.38976,163.38976 0 0 1 -0.347784,-0.42995 163.38976,163.38976 0 0 1 -0.346231,-0.43098 163.38976,163.38976 0 0 1 -0.344683,-0.43254 163.38976,163.38976 0 0 1 -0.343131,-0.43304 163.38976,163.38976 0 0 1 -0.342098,-0.4346 163.38976,163.38976 0 0 1 -0.340032,-0.43563 163.38976,163.38976 0 0 1 -0.338997,-0.43667 163.38976,163.38976 0 0 1 -0.337963,-0.43822 163.38976,163.38976 0 0 1 -0.335897,-0.43873 163.38976,163.38976 0 0 1 -0.334346,-0.44028 163.38976,163.38976 0 0 1 -0.333314,-0.44132 163.38976,163.38976 0 0 1 -0.157612,-0.20981 22.868547,22.718591 0 0 1 -0.0016,-0.001 22.868547,22.718591 0 0 1 -0.134359,-0.15658 22.868547,22.718591 0 0 1 -0.132811,-0.15813 22.868547,22.718591 0 0 1 -0.131256,-0.15916 22.868547,22.718591 0 0 1 -0.129708,-0.16072 22.868547,22.718591 0 0 1 -0.128158,-0.16123 22.868547,22.718591 0 0 1 -0.127125,-0.16278 22.868547,22.718591 0 0 1 -0.125055,-0.16381 22.868547,22.718591 0 0 1 -0.124024,-0.16537 22.868547,22.718591 0 0 1 -0.122475,-0.16588 22.868547,22.718591 0 0 1 -0.120923,-0.16691 22.868547,22.718591 0 0 1 -0.119372,-0.16847 22.868547,22.718591 0 0 1 -0.117821,-0.1695 22.868547,22.718591 0 0 1 -0.116272,-0.17001 22.868547,22.718591 0 0 1 -0.114723,-0.17157 22.868547,22.718591 0 0 1 -0.11317,-0.1726 22.868547,22.718591 0 0 1 -0.111622,-0.17311 22.868547,22.718591 0 0 1 -0.109554,-0.17467 22.868547,22.718591 0 0 1 -0.108521,-0.17466 22.868547,22.718591 0 0 1 -0.106969,-0.17674 22.868547,22.718591 0 0 1 -0.104903,-0.17725 22.868547,22.718591 0 0 1 -0.103353,-0.17828 22.868547,22.718591 0 0 1 -0.102319,-0.17984 22.868547,22.718591 0 0 1 -0.100253,-0.17983 22.868547,22.718591 0 0 1 -0.0987,-0.18087 22.868547,22.718591 0 0 1 -0.09664,-0.1819 22.868547,22.718591 0 0 1 -0.0956,-0.18293 22.868547,22.718591 0 0 1 -0.09353,-0.18346 22.868547,22.718591 0 0 1 -0.09198,-0.18448 22.868547,22.718591 0 0 1 -0.08992,-0.18552 22.868547,22.718591 0 0 1 -0.08888,-0.18603 22.868547,22.718591 0 0 1 -0.08682,-0.18707 22.868547,22.718591 0 0 1 -0.08527,-0.18759 22.868547,22.718591 0 0 1 -0.0832,-0.1881 22.868547,22.718591 0 0 1 -0.08165,-0.18914 22.868547,22.718591 0 0 1 -0.0801,-0.19017 22.868547,22.718591 0 0 1 -0.07855,-0.19017 22.868547,22.718591 0 0 1 -0.07648,-0.1912 22.868547,22.718591 0 0 1 -0.07441,-0.19223 22.868547,22.718591 0 0 1 -0.07338,-0.19276 22.868547,22.718591 0 0 1 -0.0708,-0.19327 22.868547,22.718591 0 0 1 -0.06976,-0.19378 22.868547,22.718591 0 0 1 -0.0677,-0.19431 22.868547,22.718591 0 0 1 -0.06615,-0.19533 22.868547,22.718591 0 0 1 -0.06408,-0.19586 22.868547,22.718591 0 0 1 -0.06253,-0.19585 22.868547,22.718591 0 0 1 -0.06046,-0.19689 22.868547,22.718591 0 0 1 -0.05891,-0.1974 22.868547,22.718591 0 0 1 -0.05684,-0.19792 22.868547,22.718591 0 0 1 -0.0553,-0.19844 22.868547,22.718591 0 0 1 -0.05323,-0.19895 22.868547,22.718591 0 0 1 -0.05168,-0.19948 22.868547,22.718591 0 0 1 -0.04961,-0.19947 22.868547,22.718591 0 0 1 -0.04806,-0.2005 22.868547,22.718591 0 0 1 -0.04599,-0.20051 22.868547,22.718591 0 0 1 -0.04393,-0.20102 22.868547,22.718591 0 0 1 -0.04237,-0.20153 22.868547,22.718591 0 0 1 -0.04082,-0.20206 22.868547,22.718591 0 0 1 -0.03876,-0.20206 22.868547,22.718591 0 0 1 -0.03669,-0.20257 22.868547,22.718591 0 0 1 -0.03514,-0.20257 22.868547,22.718591 0 0 1 -0.03307,-0.2036 22.868547,22.718591 0 0 1 -0.03152,-0.20309 22.868547,22.718591 0 0 1 -0.02946,-0.20412 22.868547,22.718591 0 0 1 -0.02739,-0.20361 22.868547,22.718591 0 0 1 -0.02584,-0.20412 22.868547,22.718591 0 0 1 -0.02377,-0.20464 22.868547,22.718591 0 0 1 -0.02222,-0.20464 22.868547,22.718591 0 0 1 -0.02015,-0.20515 22.868547,22.718591 0 0 1 -0.01809,-0.20464 22.868547,22.718591 0 0 1 -0.01654,-0.20516 22.868547,22.718591 0 0 1 -0.01447,-0.20567 22.868547,22.718591 0 0 1 -0.01292,-0.20516 22.868547,22.718591 0 0 1 -0.01085,-0.20567 22.868547,22.718591 0 0 1 -0.0088,-0.20567 22.868547,22.718591 0 0 1 -0.0072,-0.20567 22.868547,22.718591 0 0 1 -0.0052,-0.20567 22.868547,22.718591 0 0 1 -0.0031,-0.20567 22.868547,22.718591 0 0 1 -0.0016,-0.20619 22.868547,22.718591 0 0 1 0,-0.0522 22.868547,22.718591 0 0 1 10e-4,-0.20567 22.868547,22.718591 0 0 1 0.0026,-0.20619 22.868547,22.718591 0 0 1 0.0046,-0.20567 22.868547,22.718591 0 0 1 0.0067,-0.20567 22.868547,22.718591 0 0 1 0.0083,-0.20568 22.868547,22.718591 0 0 1 0.01034,-0.20567 22.868547,22.718591 0 0 1 0.0124,-0.20515 22.868547,22.718591 0 0 1 0.01395,-0.20568 22.868547,22.718591 0 0 1 0.01602,-0.20515 22.868547,22.718591 0 0 1 0.01757,-0.20516 22.868547,22.718591 0 0 1 0.01964,-0.20463 22.868547,22.718591 0 0 1 0.0062,-0.0594 22.868547,22.718591 0 0 1 0,-0.003 22.868546,22.718591 0 0 1 8.373131,-15.34532 22.868547,22.718591 0 0 1 0.0041,-0.003 22.868547,22.718591 0 0 1 0.161745,-0.12867 22.868547,22.718591 0 0 1 0.162782,-0.12712 22.868547,22.718591 0 0 1 0.16433,-0.12558 22.868547,22.718591 0 0 1 0.164849,-0.12454 22.868547,22.718591 0 0 1 0.166396,-0.12247 22.868547,22.718591 0 0 1 0.167434,-0.12144 22.868547,22.718591 0 0 1 0.168465,-0.11937 22.868547,22.718591 0 0 1 0.170014,-0.11834 22.868546,22.718591 0 0 1 0.170534,-0.11679 22.868547,22.718591 0 0 1 0.171564,-0.11524 22.868547,22.718591 0 0 1 0.173117,-0.1142 22.868546,22.718591 0 0 1 0.173633,-0.11111 22.868547,22.718591 0 0 1 0.174667,-0.11058 22.868547,22.718591 0 0 1 0.175699,-0.10956 22.868547,22.718591 0 0 1 0.17725,-0.10697 22.868547,22.718591 0 0 1 0.177768,-0.10542 22.868547,22.718591 0 0 1 0.1788,-0.10387 22.868547,22.718591 0 0 1 0.179316,-0.10232 22.868547,22.718591 0 0 1 0.180869,-0.10128 22.868546,22.718591 0 0 1 0.181383,-0.0992 22.868547,22.718591 0 0 1 0.18242,-0.0971 22.868547,22.718591 0 0 1 0.183448,-0.0961 22.868547,22.718591 0 0 1 0.183971,-0.0946 22.868547,22.718591 0 0 1 0.185001,-0.0925 22.868547,22.718591 0 0 1 0.186034,-0.091 22.868547,22.718591 0 0 1 0.186554,-0.0889 22.868547,22.718591 0 0 1 0.187584,-0.0879 22.868547,22.718591 0 0 1 0.188102,-0.0858 22.868547,22.718591 0 0 1 0.189135,-0.0842 22.868547,22.718591 0 0 1 0.189653,-0.0827 22.868547,22.718591 0 0 1 0.190685,-0.0806 22.868547,22.718591 0 0 1 0.191204,-0.0791 22.868547,22.718591 0 0 1 0.192236,-0.0775 22.868546,22.718591 0 0 1 0.192754,-0.0754 22.868547,22.718591 0 0 1 0.19327,-0.0739 22.868547,22.718591 0 0 1 0.193786,-0.0724 22.868547,22.718591 0 0 1 0.194821,-0.0703 22.868547,22.718591 0 0 1 0.195336,-0.0687 22.868547,22.718591 0 0 1 0.195853,-0.0667 22.868547,22.718591 0 0 1 0.196888,-0.0651 22.868546,22.718591 0 0 1 0.196887,-0.0631 22.868547,22.718591 0 0 1 0.197921,-0.062 22.868546,22.718591 0 0 1 0.19792,-0.0594 22.868547,22.718591 0 0 1 0.198956,-0.0579 22.868547,22.718591 0 0 1 0.199472,-0.0563 22.868547,22.718591 0 0 1 0.199467,-0.0543 22.868547,22.718591 0 0 1 0.200506,-0.0527 22.868547,22.718591 0 0 1 0.20102,-0.0507 22.868547,22.718591 0 0 1 0.201025,-0.0491 22.868547,22.718591 0 0 1 0.201536,-0.047 22.868547,22.718591 0 0 1 0.202057,-0.0455 22.868547,22.718591 0 0 1 0.20257,-0.0434 22.868547,22.718591 0 0 1 0.203089,-0.0419 22.868547,22.718591 0 0 1 0.203089,-0.0398 22.868547,22.718591 0 0 1 0.203602,-0.0382 22.868546,22.718591 0 0 1 0.204126,-0.0362 22.868547,22.718591 0 0 1 0.204121,-0.0346 22.868547,22.718591 0 0 1 0.204639,-0.032 22.868547,22.718591 0 0 1 0.204637,-0.031 22.868547,22.718591 0 0 1 0.205155,-0.0289 22.868547,22.718591 0 0 1 0.205674,-0.0269 22.868546,22.718591 0 0 1 0.205669,-0.0253 22.868547,22.718591 0 0 1 0.205676,-0.0233 22.868547,22.718591 0 0 1 0.206185,-0.0212 22.868547,22.718591 0 0 1 0.206192,-0.0196 22.868547,22.718591 0 0 1 0.206187,-0.0176 22.868547,22.718591 0 0 1 0.206706,-0.016 22.868547,22.718591 0 0 1 0.206706,-0.0139 22.868547,22.718591 0 0 1 0.206708,-0.0124 22.868547,22.718591 0 0 1 0.207219,-0.0103 22.868546,22.718591 0 0 1 0.206706,-0.008 22.868547,22.718591 0 0 1 0.207224,-0.007 22.868547,22.718591 0 0 1 0.207222,-0.005 22.868547,22.718591 0 0 1 0.207224,-0.003 22.868547,22.718591 0 0 1 0.207219,-10e-4 z m 32.001658,0 v 5.3e-4 h 5.3e-4 a 22.868547,22.718591 0 0 1 0.20722,10e-4 22.868547,22.718591 0 0 1 0.20722,0.003 22.868547,22.718591 0 0 1 0.20723,0.005 22.868547,22.718591 0 0 1 0.2067,0.007 22.868547,22.718591 0 0 1 0.20723,0.008 22.868547,22.718591 0 0 1 0.2067,0.0103 22.868547,22.718591 0 0 1 0.20671,0.0119 22.868546,22.718591 0 0 1 5.3e-4,0 22.868547,22.718591 0 0 1 0.20671,0.0134 22.868547,22.718591 0 0 1 0.20619,0.016 22.868547,22.718591 0 0 1 0.20619,0.0181 22.868546,22.718591 0 0 1 5.3e-4,-5.3e-4 22.868547,22.718591 0 0 1 0.20619,0.0196 22.868547,22.718591 0 0 1 0.20619,0.0217 22.868547,22.718591 0 0 1 0.20567,0.0238 22.868547,22.718591 0 0 1 0.20568,0.0243 22.868547,22.718591 0 0 1 0.20515,0.0274 22.868547,22.718591 0 0 1 0.20516,0.0284 22.868547,22.718591 0 0 1 0.20464,0.031 22.868546,22.718591 0 0 1 5.3e-4,0 22.868547,22.718591 0 0 1 0.20464,0.032 22.868547,22.718591 0 0 1 0.20412,0.0346 22.868547,22.718591 0 0 1 0.20413,0.0362 22.868547,22.718591 0 0 1 0.2036,0.0377 22.868547,22.718591 0 0 1 0.20309,0.0403 22.868547,22.718591 0 0 1 0.20309,0.0413 22.868547,22.718591 0 0 1 0.20257,0.0434 22.868547,22.718591 0 0 1 0.20205,0.0455 22.868547,22.718591 0 0 1 0.20154,0.047 22.868547,22.718591 0 0 1 0.20102,0.0491 22.868547,22.718591 0 0 1 0.20102,0.0506 22.868547,22.718591 0 0 1 0.19999,0.0527 22.868547,22.718591 0 0 1 0.19999,0.0543 22.868547,22.718591 0 0 1 0.19947,0.0563 22.868547,22.718591 0 0 1 0.19895,0.0579 22.868547,22.718591 0 0 1 0.19793,0.0594 22.868547,22.718591 0 0 1 0.19792,0.0615 22.868547,22.718591 0 0 1 0.19688,0.0636 22.868547,22.718591 0 0 1 0.19637,0.0651 22.868546,22.718591 0 0 1 5.3e-4,0 22.868547,22.718591 0 0 1 0.19585,0.0667 22.868547,22.718591 0 0 1 0.19534,0.0687 22.868547,22.718591 0 0 1 0.19482,0.0703 22.868547,22.718591 0 0 1 0.19379,0.0723 22.868547,22.718591 0 0 1 0.19327,0.0734 22.868547,22.718591 0 0 1 0.19275,0.076 22.868547,22.718591 0 0 1 0.19224,0.077 22.868547,22.718591 0 0 1 0.1912,0.0791 22.868547,22.718591 0 0 1 0.19069,0.0811 22.868547,22.718591 0 0 1 0.18965,0.0822 22.868547,22.718591 0 0 1 0.18913,0.0842 22.868547,22.718591 0 0 1 0.18811,0.0858 22.868547,22.718591 0 0 1 0.18758,0.0879 22.868547,22.718591 0 0 1 0.18707,0.0889 22.868547,22.718591 0 0 1 0.18552,0.0909 22.868547,22.718591 0 0 1 0.185,0.0925 22.868547,22.718591 0 0 1 0.18397,0.0946 22.868546,22.718591 0 0 1 5.3e-4,0 22.868547,22.718591 0 0 1 0.18293,0.0956 22.868547,22.718591 0 0 1 0.18242,0.0977 22.868546,22.718591 0 0 1 5.3e-4,0 22.868547,22.718591 0 0 1 0.18139,0.0992 22.868547,22.718591 0 0 1 0.18035,0.10077 22.868547,22.718591 0 0 1 0.17983,0.10232 22.868547,22.718591 0 0 1 0.1788,0.10439 22.868547,22.718591 0 0 1 0.17777,0.10542 22.868547,22.718591 0 0 1 0.17673,0.10748 22.868547,22.718591 0 0 1 0.17622,0.10853 22.868547,22.718591 0 0 1 0.17467,0.11058 22.868547,22.718591 0 0 1 0.17363,0.11214 22.868547,22.718591 0 0 1 0.1726,0.11317 22.868546,22.718591 0 0 1 5.3e-4,0 22.868547,22.718591 0 0 1 0.17155,0.11472 22.868547,22.718591 0 0 1 0.17054,0.11679 22.868547,22.718591 0 0 1 0.1695,0.11834 22.868546,22.718591 0 0 1 5.2e-4,0 22.868547,22.718591 0 0 1 0.16848,0.11937 22.868547,22.718591 0 0 1 0.16743,0.12144 22.868547,22.718591 0 0 1 0.16639,0.12248 22.868547,22.718591 0 0 1 0.16485,0.12454 22.868547,22.718591 0 0 1 0.16433,0.12557 22.868547,22.718591 0 0 1 0.16278,0.12712 22.868547,22.718591 0 0 1 0.16175,0.12868 22.868547,22.718591 0 0 1 0.002,0.001 22.868546,22.718591 0 0 1 8.37778,15.35254 22.868547,22.718591 0 0 1 0.0202,0.20465 22.868547,22.718591 0 0 1 0.0186,0.20515 22.868547,22.718591 0 0 1 0.016,0.20515 22.868547,22.718591 0 0 1 0.015,0.20517 22.868547,22.718591 0 0 1 0.0124,0.20567 22.868547,22.718591 0 0 1 0.0108,0.20567 22.868547,22.718591 0 0 1 0.009,0.20568 22.868547,22.718591 0 0 1 0.007,0.20567 22.868547,22.718591 0 0 1 0.006,0.20567 22.868547,22.718591 0 0 1 0.003,0.20567 22.868547,22.718591 0 0 1 0.002,0.20567 22.868547,22.718591 0 0 1 0,0.0594 22.868547,22.718591 0 0 1 -0.001,0.20567 22.868547,22.718591 0 0 1 -0.003,0.20619 22.868547,22.718591 0 0 1 -0.005,0.20568 22.868547,22.718591 0 0 1 -0.007,0.20567 22.868547,22.718591 0 0 1 -0.008,0.20567 22.868547,22.718591 0 0 1 -0.0103,0.20567 22.868547,22.718591 0 0 1 -0.0124,0.20516 22.868547,22.718591 0 0 1 -0.014,0.20567 22.868547,22.718591 0 0 1 -0.016,0.20515 22.868547,22.718591 0 0 1 -0.0181,0.20464 22.868547,22.718591 0 0 1 -0.0196,0.20516 22.868547,22.718591 0 0 1 -0.0212,0.20464 22.868547,22.718591 0 0 1 -0.0238,0.20464 22.868547,22.718591 0 0 1 -0.0253,0.20412 22.868547,22.718591 0 0 1 -0.0269,0.20412 22.868547,22.718591 0 0 1 -0.0289,0.20361 22.868547,22.718591 0 0 1 -0.031,0.2036 22.868547,22.718591 0 0 1 -0.0326,0.20361 22.868547,22.718591 0 0 1 -0.0346,0.20257 22.868547,22.718591 0 0 1 -0.0367,0.20257 22.868547,22.718591 0 0 1 -0.0382,0.20257 22.868547,22.718591 0 0 1 -0.0398,0.20206 22.868547,22.718591 0 0 1 -0.0424,0.20153 22.868547,22.718591 0 0 1 -0.0434,0.20102 22.868547,22.718591 0 0 1 -0.046,0.20051 22.868547,22.718591 0 0 1 -0.047,0.2005 22.868547,22.718591 0 0 1 -0.0496,0.19999 22.868547,22.718591 0 0 1 -0.0512,0.19947 22.868547,22.718591 0 0 1 -0.0527,0.19896 22.868547,22.718591 0 0 1 -0.0548,0.19843 22.868547,22.718591 0 0 1 -0.0563,0.19792 22.868547,22.718591 0 0 1 -0.0584,0.19793 22.868547,22.718591 0 0 1 -0.0599,0.19688 22.868547,22.718591 0 0 1 -0.062,0.19637 22.868547,22.718591 0 0 1 -0.0641,0.19586 22.868547,22.718591 0 0 1 -0.0651,0.19533 22.868547,22.718591 0 0 1 -0.0677,0.19431 22.868547,22.718591 0 0 1 -0.0687,0.1943 22.868547,22.718591 0 0 1 -0.0708,0.19327 22.868547,22.718591 0 0 1 -0.0729,0.19275 22.868547,22.718591 0 0 1 -0.0739,0.19224 22.868547,22.718591 0 0 1 -0.0765,0.19172 22.868547,22.718591 0 0 1 -0.0775,0.19069 22.868547,22.718591 0 0 1 -0.0796,0.18965 22.868547,22.718591 0 0 1 -0.0816,0.18965 22.868547,22.718591 0 0 1 -0.0827,0.18862 22.868547,22.718591 0 0 1 -0.0847,0.18758 22.868547,22.718591 0 0 1 -0.0863,0.18707 22.868547,22.718591 0 0 1 -0.0884,0.18656 22.868547,22.718591 0 0 1 -0.0899,0.18551 22.868547,22.718591 0 0 1 -0.0915,0.18449 22.868547,22.718591 0 0 1 -0.093,0.18397 22.868547,22.718591 0 0 1 -0.0951,0.18293 22.868547,22.718591 0 0 1 -0.0966,0.1819 22.868547,22.718591 0 0 1 -0.0982,0.18139 22.868547,22.718591 0 0 1 -0.0997,0.18035 22.868547,22.718591 0 0 1 -0.10128,0.17932 22.868547,22.718591 0 0 1 -0.10336,0.17828 22.868547,22.718591 0 0 1 -0.1049,0.17777 22.868547,22.718591 0 0 1 -0.10594,0.17673 22.868547,22.718591 0 0 1 -0.108,0.1757 22.868547,22.718591 0 0 1 -0.10955,0.17467 22.868547,22.718591 0 0 1 -0.11111,0.17363 22.868547,22.718591 0 0 1 -0.11317,0.1726 22.868547,22.718591 0 0 1 -0.1142,0.17156 22.868547,22.718591 0 0 1 -0.11576,0.17105 22.868547,22.718591 0 0 1 -0.1173,0.1695 22.868547,22.718591 0 0 1 -0.11886,0.16847 22.868547,22.718591 0 0 1 -0.12041,0.16743 22.868547,22.718591 0 0 1 -0.12247,0.1664 22.868547,22.718591 0 0 1 -0.12351,0.16536 22.868547,22.718591 0 0 1 -0.12505,0.16382 22.868547,22.718591 0 0 1 -0.12609,0.16329 22.868547,22.718591 0 0 1 -0.12816,0.16175 22.868547,22.718591 0 0 1 -0.12971,0.16071 22.868547,22.718591 0 0 1 -0.13074,0.15917 22.868547,22.718591 0 0 1 -0.13229,0.15864 22.868547,22.718591 0 0 1 -0.13384,0.1571 22.868547,22.718591 0 0 1 -0.032,0.0382 22.868547,22.718591 0 0 0 0,5.2e-4 163.38976,163.38976 0 0 1 -0.33228,0.44183 163.38976,163.38976 0 0 1 -0.33383,0.4408 163.38976,163.38976 0 0 1 -0.33538,0.43977 163.38976,163.38976 0 0 1 -0.33694,0.43821 163.38976,163.38976 0 0 1 -0.33796,0.43719 163.38976,163.38976 0 0 1 -0.34004,0.43666 163.38976,163.38976 0 0 1 -0.34105,0.4346 163.38976,163.38976 0 0 1 -0.34262,0.43408 163.38976,163.38976 0 0 1 -0.34417,0.43253 163.38976,163.38976 0 0 1 -0.34571,0.4315 163.38976,163.38976 0 0 1 -0.34674,0.43047 163.38976,163.38976 0 0 1 -0.34882,0.42943 163.38976,163.38976 0 0 1 -0.34985,0.42788 163.38976,163.38976 0 0 1 -0.35141,0.42685 163.38976,163.38976 0 0 1 -0.35294,0.42581 163.38976,163.38976 0 0 1 -0.3545,0.42426 163.38976,163.38976 0 0 1 -0.35553,0.42323 163.38976,163.38976 0 0 1 -0.35709,0.4222 163.38976,163.38976 0 0 1 -0.35863,0.42066 163.38976,163.38976 0 0 1 -0.36019,0.4196 163.38976,163.38976 0 0 1 -0.36122,0.41858 163.38976,163.38976 0 0 1 -0.36277,0.41703 163.38976,163.38976 0 0 1 -0.36431,0.41599 163.38976,163.38976 0 0 1 -0.36588,0.41446 163.38976,163.38976 0 0 1 -0.3669,0.4134 163.38976,163.38976 0 0 1 -0.12402,0.13849 30.144217,30.144217 0 0 1 -0.001,0.002 163.38976,163.38976 0 0 1 -5.3511,5.71179 163.38976,163.38976 0 0 1 -0.19533,0.19844 163.38976,163.38976 0 0 1 -0.38862,0.39274 163.38976,163.38976 0 0 1 -0.39016,0.39171 163.38976,163.38976 0 0 1 -0.39171,0.39016 163.38976,163.38976 0 0 1 -0.39324,0.3886 163.38976,163.38976 0 0 1 -0.39429,0.38758 163.38976,163.38976 0 0 1 -0.39637,0.38602 163.38976,163.38976 0 0 1 -0.39635,0.38499 163.38976,163.38976 0 0 1 -0.19069,0.18397 l -5.3e-4,0.001 a 163.38976,163.38976 0 0 1 -0.0119,-0.0114 l -4.20956,-4.20955 a 163.38976,163.38976 0 0 1 -4.94079,-5.35782 236.91057,236.91057 0 0 0 2.33216,-3.05976 33.158755,32.941323 0 0 0 5.3e-4,-5.2e-4 33.158755,32.941323 0 0 0 7.98762,-21.44314 33.158755,32.941323 0 0 0 -7.50496,-20.87211 33.158755,32.941323 0 0 0 -0.12609,-0.15192 33.158755,32.941323 0 0 0 -0.15968,-0.19017 33.158755,32.941323 0 0 0 -0.16175,-0.18914 33.158755,32.941323 0 0 0 -0.16278,-0.18759 33.158755,32.941323 0 0 0 -0.16433,-0.18655 33.158755,32.941323 0 0 0 -0.11989,-0.13487 22.868547,22.718591 0 0 1 0.19688,-0.0641 22.868547,22.718591 0 0 1 0.19741,-0.0625 22.868547,22.718591 0 0 1 0.19792,-0.061 22.868547,22.718591 0 0 1 0.19844,-0.0589 22.868547,22.718591 0 0 1 0.19895,-0.0574 22.868547,22.718591 0 0 1 0.19947,-0.0553 22.868547,22.718591 0 0 1 0.19999,-0.0532 22.868547,22.718591 0 0 1 0.2005,-0.0522 22.868547,22.718591 0 0 1 0.20103,-0.0496 22.868547,22.718591 0 0 1 0.20154,-0.0481 22.868547,22.718591 0 0 1 0.20205,-0.0465 22.868547,22.718591 0 0 1 0.20205,-0.0444 22.868547,22.718591 0 0 1 0.20258,-0.0429 22.868547,22.718591 0 0 1 0.20308,-0.0408 22.868547,22.718591 0 0 1 0.20361,-0.0388 22.868547,22.718591 0 0 1 0.20361,-0.0372 22.868547,22.718591 0 0 1 0.20412,-0.0357 22.868547,22.718591 0 0 1 0.20464,-0.0336 22.868547,22.718591 0 0 1 0.20463,-0.0315 22.868547,22.718591 0 0 1 0.20516,-0.03 22.868547,22.718591 0 0 1 0.20516,-0.0279 22.868547,22.718591 0 0 1 0.20567,-0.0264 22.868547,22.718591 0 0 1 0.20567,-0.0243 22.868547,22.718591 0 0 1 0.20567,-0.0222 22.868547,22.718591 0 0 1 0.20619,-0.0207 22.868547,22.718591 0 0 1 0.20619,-0.0186 22.868547,22.718591 0 0 1 0.2067,-0.017 22.868547,22.718591 0 0 1 0.20671,-0.015 22.868547,22.718591 0 0 1 0.20671,-0.0129 22.868547,22.718591 0 0 1 0.2067,-0.0114 22.868547,22.718591 0 0 1 0.20723,-0.009 22.868547,22.718591 0 0 1 0.2067,-0.008 22.868547,22.718591 0 0 1 0.20722,-0.006 22.868547,22.718591 0 0 1 0.20722,-0.004 22.868547,22.718591 0 0 1 0.20723,-0.002 22.868547,22.718591 0 0 1 0.11575,-5.3e-4 z m -15.99954,6.48746 a 22.868546,22.718591 0 0 1 6.86883,16.23208 22.868546,22.718591 0 0 1 -5.50922,14.78876 22.868546,22.718591 0 0 0 0,5.2e-4 163.38976,163.38976 0 0 1 -1.35857,1.78749 163.38976,163.38976 0 0 1 -1.357027,-1.78491 22.868546,22.718591 0 0 1 -0.0021,-10e-4 22.868546,22.718591 0 0 1 -5.510776,-14.79083 22.868546,22.718591 0 0 1 6.868833,-16.23208 z m 27.38542,35.93424 a 22.868546,22.718591 0 0 1 -2.38178,1.18081 l -0.0429,0.0651 a 22.868546,22.868546 0 0 0 0.13798,-0.061 22.868546,22.868546 0 0 0 0.15659,-0.0713 22.868546,22.868546 0 0 0 0.15605,-0.0718 22.868546,22.868546 0 0 0 0.15503,-0.0734 22.868546,22.868546 0 0 0 0.15503,-0.0744 22.868546,22.868546 0 0 0 0.15401,-0.0749 22.868546,22.868546 0 0 0 0.15399,-0.0765 22.868546,22.868546 0 0 0 0.15296,-0.078 22.868546,22.868546 0 0 0 0.15245,-0.0791 22.868546,22.868546 0 0 0 0.15193,-0.0801 22.868546,22.868546 0 0 0 0.15141,-0.0811 22.868546,22.868546 0 0 0 0.15089,-0.0822 22.868546,22.868546 0 0 0 0.14987,-0.0837 22.868546,22.868546 0 0 0 0.14933,-0.0853 22.868546,22.868546 0 0 0 0.14884,-0.0858 22.868546,22.868546 0 0 0 0.1483,-0.0873 z m -27.3849,13.58108 a 236.91057,236.91057 0 0 0 4.04988,4.63486 30.144217,30.144217 0 0 1 -4.05039,0.27337 30.144217,30.144217 0 0 1 -4.049368,-0.27337 236.91057,236.91057 0 0 0 4.049878,-4.63486 z" />
  </g>
</svg>
